<svg width="30" height="30" viewBox="0 0 30 30" fill="none" xmlns="http://www.w3.org/2000/svg">
<rect width="30" height="30" rx="5" fill="#322C3A"/>
<path d="M15 6C10.0342 6 6 10.2583 6 15.5C6 20.7417 10.0342 25 15 25C19.9658 25 24 20.7417 24 15.5C24 10.2583 19.9658 6 15 6ZM15 6.82609C19.5429 6.82609 23.2174 10.7048 23.2174 15.5C23.2174 20.2952 19.5429 24.1739 15 24.1739C10.4571 24.1739 6.78261 20.2952 6.78261 15.5C6.78261 10.7048 10.4571 6.82609 15 6.82609ZM18.1266 11.777C18.0234 11.7795 17.9253 11.8251 17.8538 11.9036L15 14.9159L12.1462 11.9036C12.1098 11.8641 12.0662 11.8326 12.018 11.8111C11.9698 11.7896 11.918 11.7786 11.8657 11.7786C11.7879 11.7786 11.7118 11.8031 11.6473 11.849C11.5827 11.8949 11.5326 11.9601 11.5033 12.0362C11.474 12.1123 11.4669 12.196 11.4828 12.2764C11.4988 12.3568 11.5371 12.4304 11.5929 12.4877L14.4467 15.5L11.5929 18.5123C11.5553 18.5504 11.5254 18.596 11.5047 18.6464C11.4841 18.6968 11.4731 18.7511 11.4726 18.8061C11.4721 18.861 11.4819 18.9156 11.5016 18.9664C11.5213 19.0173 11.5504 19.0635 11.5872 19.1024C11.624 19.1412 11.6678 19.172 11.716 19.1927C11.7642 19.2135 11.8159 19.2239 11.8679 19.2234C11.92 19.2228 11.9714 19.2113 12.0192 19.1895C12.067 19.1677 12.1102 19.136 12.1462 19.0964L15 16.0841L17.8538 19.0964C17.8898 19.136 17.933 19.1677 17.9808 19.1895C18.0286 19.2113 18.08 19.2228 18.1321 19.2234C18.1841 19.2239 18.2358 19.2135 18.284 19.1927C18.3322 19.172 18.376 19.1412 18.4128 19.1024C18.4496 19.0635 18.4787 19.0173 18.4984 18.9664C18.5181 18.9156 18.5279 18.861 18.5274 18.8061C18.5269 18.7511 18.5159 18.6968 18.4953 18.6464C18.4746 18.596 18.4447 18.5504 18.4071 18.5123L15.5533 15.5L18.4071 12.4877C18.4639 12.43 18.5029 12.3555 18.519 12.2741C18.535 12.1926 18.5274 12.1079 18.4971 12.0311C18.4668 11.9543 18.4152 11.8889 18.3491 11.8436C18.283 11.7982 18.2054 11.775 18.1266 11.777Z" fill="#9E78CF"/>
</svg>
